# xmcd
#
# Track frame offsets: 
#        150
#        19816
#        37443
#        59342
#        76944
#        99884
#        117505
#        134626
#        148630
#        164800
#
# Disc length: 2685 seconds
#
# Revision: 0
# Processed by: cddbd v1.5.2PL0 Copyright (c) Steve Scherf et al.
# Submitted via: ExactAudioCopy v1.3
#
DISCID=930a7b0a
DTITLE=Budda Power Blues - Budda Power Blues
DYEAR=2015
DGENRE=Blues Rock
TTITLE0=I Wanna Please My Baby
TTITLE1=Tony My German Friend
TTITLE2=I Feel So Blessed (Feat. Maria Joao)
TTITLE3=I've Been Down
TTITLE4=Emigrant Song
TTITLE5=I Do The Walk
TTITLE6=Gotta Do Something
TTITLE7=Chicken Dance
TTITLE8=Blues Going Down (Feat. Paul Lamb)
TTITLE9=The Sun Is Shining Above The Clouds (Feat. Alex Liberalli)
EXTD=
EXTT0=
EXTT1=
EXTT2=
EXTT3=
EXTT4=
EXTT5=
EXTT6=
EXTT7=
EXTT8=
EXTT9=
PLAYORDER=
